<?xml version="1.0" standalone="no"?>
<!DOCTYPE svg PUBLIC "-//W3C//DTD SVG 20010904//EN"
 "http://www.w3.org/TR/2001/REC-SVG-20010904/DTD/svg10.dtd">
<svg version="1.0" xmlns="http://www.w3.org/2000/svg"
 width="3301.000000pt" height="1345.000000pt" viewBox="0 0 3301.000000 1345.000000"
 preserveAspectRatio="xMidYMid meet">
<metadata>
Created by potrace 1.16, written by Peter Selinger 2001-2019
</metadata>
<g transform="translate(0.000000,1345.000000) scale(0.100000,-0.100000)"
fill="#000000" stroke="none">
<path d="M6440 10921 c0 -5 129 -232 286 -505 l286 -496 -771 -1335 c-424
-734 -771 -1338 -771 -1340 0 -3 262 -4 581 -3 l581 3 766 1325 c420 729 767
1333 769 1342 4 15 -494 896 -559 991 l-19 27 -575 0 c-333 0 -574 -4 -574 -9z"/>
<path d="M7990 10914 c0 -3 128 -228 285 -499 l285 -494 -766 -1327 c-421
-729 -768 -1333 -771 -1340 -4 -12 86 -14 573 -14 l579 0 774 1340 773 1340
-82 143 c-45 78 -175 303 -288 500 l-207 357 -577 0 c-318 0 -578 -3 -578 -6z"/>
<path d="M23864 10908 l-81 -10 5 -212 5 -213 -54 7 c-139 18 -297 -36 -382
-130 -89 -99 -122 -206 -115 -380 4 -86 11 -129 27 -173 52 -134 163 -217 291
-218 104 -1 152 16 219 77 l38 34 20 -53 21 -52 92 2 c51 2 95 5 98 7 2 3 -3
36 -12 75 -14 60 -16 154 -16 641 0 375 -4 578 -10 591 -12 21 -20 21 -146 7z
m-86 -556 c9 -7 12 -74 10 -302 l-3 -293 -26 -20 c-66 -49 -185 -24 -233 50
-43 67 -59 142 -54 267 3 87 9 122 27 162 27 62 75 111 127 129 43 16 132 19
152 7z"/>
<path d="M26531 10907 l-83 -10 6 -36 c4 -20 9 -117 13 -215 5 -136 3 -177 -6
-172 -6 4 -51 7 -99 7 -264 0 -429 -161 -449 -437 -12 -161 36 -305 127 -387
67 -60 128 -80 228 -75 87 4 133 23 186 74 39 38 41 37 66 -40 l12 -39 96 7
c53 4 97 8 98 9 1 1 -5 27 -14 57 -14 48 -17 135 -20 650 -2 405 -6 598 -14
607 -12 14 -26 14 -147 0z m-77 -553 c14 -5 16 -41 16 -300 l0 -294 -32 -20
c-105 -64 -220 -18 -270 108 -18 48 -22 77 -22 182 -1 120 0 128 30 191 32 68
72 107 129 127 33 12 125 15 149 6z"/>
<path d="M16547 10886 c-52 -19 -73 -40 -93 -93 -34 -88 23 -173 115 -173 114
0 188 123 131 217 -32 53 -90 71 -153 49z"/>
<path d="M22469 10888 c-57 -15 -101 -67 -107 -126 -9 -93 47 -149 140 -140
78 8 128 68 128 152 0 65 -37 106 -110 121 -8 1 -31 -2 -51 -7z"/>
<path d="M13625 10813 c-22 -1 -67 -5 -100 -8 l-61 -6 8 -72 c4 -40 7 -228 7
-418 1 -191 6 -370 11 -399 40 -210 201 -331 440 -331 209 0 355 82 428 239
l27 57 3 468 3 467 -69 0 c-38 0 -89 -3 -113 -6 l-44 -6 3 -431 c3 -379 1
-436 -13 -473 -37 -97 -100 -138 -210 -138 -119 0 -200 63 -224 175 -7 31 -11
205 -11 457 0 410 -2 436 -34 430 -6 -1 -29 -3 -51 -5z"/>
<path d="M15524 10478 c-66 -10 -128 -36 -185 -81 l-46 -35 -18 59 c-12 38
-24 59 -33 59 -40 0 -192 -35 -192 -44 0 -6 7 -47 15 -91 11 -59 14 -168 15
-417 l0 -338 110 0 110 0 0 338 0 339 48 26 c61 33 119 43 166 27 70 -23 70
-25 76 -395 l5 -330 113 -3 113 -3 -3 353 c-3 308 -6 359 -21 398 -42 107
-142 158 -273 138z"/>
<path d="M18966 10478 c-161 -21 -286 -140 -331 -315 -8 -31 -15 -99 -15 -149
0 -223 104 -371 299 -424 102 -27 287 -8 382 41 l40 20 -6 67 c-4 37 -9 68
-10 70 -2 2 -35 -8 -75 -22 -89 -32 -194 -35 -256 -7 -53 24 -107 89 -127 152
-32 96 -50 89 223 89 227 0 241 1 260 20 15 15 20 33 20 73 0 268 -157 418
-404 385z m135 -166 c28 -32 49 -105 49 -172 l0 -40 -58 0 c-33 0 -100 -3
-150 -6 l-92 -7 0 35 c0 48 26 130 52 163 57 73 147 85 199 27z"/>
<path d="M20434 10480 c-49 -11 -102 -48 -144 -102 -22 -27 -42 -50 -46 -51
-3 -1 -15 31 -25 72 -10 41 -21 77 -24 79 -3 3 -51 -3 -106 -13 l-101 -19 6
-40 c3 -23 10 -70 16 -106 5 -36 10 -210 10 -387 l0 -323 110 0 110 0 0 306 0
305 66 31 c60 28 72 30 148 26 l83 -4 10 100 c6 56 7 105 3 110 -13 13 -82 23
-116 16z"/>
<path d="M21356 10478 c-116 -14 -211 -70 -252 -150 -9 -17 -18 -54 -21 -84
-12 -118 50 -194 231 -279 140 -66 176 -95 176 -140 0 -47 -8 -64 -41 -80 -62
-33 -253 -4 -336 51 -21 13 -23 12 -28 -8 -2 -13 -6 -52 -7 -88 l-3 -64 65
-24 c35 -12 100 -26 143 -31 271 -26 446 90 424 282 -12 96 -81 163 -247 237
-144 64 -186 108 -161 168 28 67 139 82 266 36 39 -13 77 -27 86 -30 14 -5 18
7 24 76 9 96 11 93 -90 114 -96 20 -148 23 -229 14z"/>
<path d="M24939 10479 c-72 -8 -168 -30 -220 -51 l-32 -14 2 -69 c3 -106 3
-106 59 -79 67 33 185 58 238 50 101 -13 134 -54 134 -164 l0 -69 -68 -6
c-254 -21 -403 -131 -402 -298 1 -120 89 -199 223 -200 100 -1 173 25 234 84
18 17 34 29 36 26 2 -2 11 -26 21 -52 10 -27 25 -51 32 -54 8 -3 52 -2 98 2
l84 7 -16 51 c-13 42 -16 108 -17 327 -1 151 -5 291 -9 310 -33 148 -183 223
-397 199z m181 -599 l0 -121 -52 -24 c-77 -36 -122 -33 -164 9 -28 28 -34 42
-34 76 0 78 47 128 150 161 104 33 100 37 100 -101z"/>
<path d="M16526 10469 c-38 -5 -71 -11 -73 -12 -1 -2 1 -37 7 -78 5 -41 10
-235 10 -431 l0 -358 110 0 110 0 -2 443 -3 442 -45 1 c-25 1 -76 -2 -114 -7z"/>
<path d="M17350 10471 c-30 -3 -54 -10 -54 -16 1 -5 60 -192 132 -415 71 -223
133 -415 137 -428 6 -22 9 -23 127 -20 l121 3 139 415 c76 228 137 424 136
435 -4 23 -59 37 -132 33 l-49 -3 -58 -215 c-31 -118 -73 -270 -93 -338 -20
-68 -36 -133 -36 -145 -1 -12 -16 34 -34 103 -18 69 -61 232 -97 362 l-64 238
-60 -2 c-33 -1 -85 -4 -115 -7z"/>
<path d="M22445 10469 c-77 -11 -88 -16 -78 -31 4 -7 10 -200 13 -428 l5 -415
110 0 110 0 3 429 c1 308 -1 433 -9 442 -13 16 -61 16 -154 3z"/>
<path d="M9897 9559 c-8 -13 -133 -229 -277 -479 -144 -250 -268 -465 -275
-476 -13 -20 44 -122 759 -1360 l773 -1339 584 -2 584 -2 285 495 c157 272
286 499 288 504 2 6 -217 11 -578 12 l-581 3 -765 1325 c-421 729 -769 1329
-774 1334 -4 4 -15 -2 -23 -15z"/>
<path d="M23327 9055 c-142 -18 -260 -35 -263 -37 -5 -5 17 -204 32 -293 3
-22 9 -742 13 -1600 l6 -1560 290 0 290 0 3 1729 2 1730 -32 33 c-21 22 -41
33 -57 32 -15 -1 -142 -16 -284 -34z"/>
<path d="M24462 9055 c-145 -18 -265 -35 -267 -37 -1 -1 1 -32 6 -68 42 -300
42 -304 46 -1877 l4 -1513 290 0 289 0 0 1733 0 1733 -33 32 c-18 18 -42 32
-52 31 -11 -1 -138 -16 -283 -34z"/>
<path d="M13710 8786 c-233 -20 -245 -22 -243 -41 36 -335 43 -659 43 -1978
l0 -1207 938 2 937 3 3 233 2 232 -107 0 c-112 0 -715 -15 -1005 -25 l-168 -6
0 1370 0 1370 -31 36 c-37 42 -21 42 -369 11z"/>
<path d="M19412 8798 c-112 -14 -287 -61 -388 -105 -264 -114 -431 -300 -507
-561 -29 -103 -31 -342 -3 -441 57 -208 183 -368 406 -516 52 -35 205 -120
338 -189 374 -193 492 -281 563 -424 30 -60 34 -78 37 -167 3 -84 0 -109 -18
-157 -44 -117 -154 -201 -305 -233 -236 -50 -671 23 -937 156 l-77 39 -5 -33
c-7 -43 -36 -403 -36 -445 0 -31 4 -35 63 -62 202 -92 559 -148 871 -137 553
18 922 249 1036 648 31 107 38 307 16 419 -38 184 -110 313 -251 448 -113 110
-239 190 -526 338 -132 67 -276 147 -322 177 -103 69 -190 159 -225 234 -24
52 -27 70 -27 163 0 94 3 111 28 161 52 106 165 183 318 215 57 12 110 15 229
11 212 -8 352 -41 543 -129 48 -23 89 -39 91 -37 3 5 69 464 70 494 1 16 -15
25 -83 47 -101 34 -290 73 -423 87 -115 13 -372 12 -476 -1z"/>
<path d="M8846 7743 c-158 -274 -288 -501 -289 -505 -1 -3 345 -607 768 -1342
l770 -1335 585 0 585 0 287 497 286 497 -579 5 -580 5 -745 1290 c-410 710
-758 1312 -773 1338 l-28 48 -287 -498z"/>
<path d="M16510 7924 c-113 -14 -258 -39 -347 -59 -102 -24 -337 -98 -361
-113 -10 -7 -10 -50 4 -233 9 -123 17 -225 18 -226 0 0 46 21 101 48 213 105
425 154 629 147 146 -6 211 -27 285 -94 90 -81 121 -188 121 -418 l0 -113 -97
-7 c-528 -38 -899 -188 -1061 -431 -68 -101 -93 -182 -99 -320 -9 -185 38
-315 153 -425 120 -115 282 -167 493 -157 138 6 244 32 359 87 107 51 163 90
239 168 39 39 65 58 67 50 3 -7 14 -44 27 -83 12 -38 38 -105 57 -148 l35 -79
81 7 c308 27 411 41 407 55 -2 8 -16 66 -32 129 -58 227 -62 293 -54 946 7
633 6 663 -42 808 -77 232 -270 387 -553 442 -82 16 -355 28 -430 19z m450
-1583 l0 -310 -37 -31 c-98 -81 -277 -139 -390 -126 -73 9 -113 27 -166 75
-139 128 -120 370 39 510 107 94 356 184 522 190 l32 1 0 -309z"/>
<path d="M21595 7924 c-102 -11 -257 -38 -368 -65 -128 -31 -325 -95 -341
-110 -9 -8 7 -331 20 -421 l5 -36 122 58 c193 93 384 140 568 140 121 0 187
-13 262 -53 71 -37 119 -92 149 -166 19 -48 22 -81 26 -232 l4 -176 -99 -7
c-540 -39 -909 -195 -1073 -452 -74 -117 -105 -300 -76 -445 42 -206 160 -340
359 -406 75 -24 96 -27 237 -27 168 -1 229 10 363 65 106 43 174 87 261 171
44 42 81 76 82 75 1 -1 14 -40 29 -87 15 -47 43 -118 61 -159 l34 -74 58 6
c31 3 142 14 245 23 181 17 188 19 184 38 -3 12 -16 64 -31 116 -57 209 -60
263 -56 760 8 756 7 821 -19 925 -69 284 -256 452 -577 520 -77 17 -341 28
-429 19z m445 -1589 l0 -315 -73 -48 c-178 -116 -377 -132 -498 -39 -128 98
-147 315 -40 457 91 121 252 203 477 244 43 8 91 15 107 15 l27 1 0 -315z"/>
<path d="M26195 7920 c-149 -23 -326 -92 -443 -172 -106 -72 -238 -216 -314
-343 -229 -381 -234 -1016 -11 -1388 57 -95 182 -231 269 -293 85 -61 231
-128 342 -158 262 -70 607 -58 876 30 89 29 239 98 255 118 10 11 -7 254 -24
362 l-5 31 -65 -34 c-81 -43 -206 -89 -299 -110 -102 -23 -330 -23 -416 1
-207 56 -361 207 -435 426 -21 63 -55 220 -55 258 0 9 137 12 654 12 l654 0
36 40 36 40 0 168 c0 230 -21 358 -81 505 -45 112 -89 177 -184 272 -73 74
-107 100 -183 139 -131 67 -253 97 -417 101 -71 2 -157 0 -190 -5z m254 -366
c61 -26 116 -80 153 -151 51 -97 68 -185 68 -352 l0 -141 -47 0 c-27 0 -196
-7 -378 -15 -181 -8 -341 -15 -354 -15 l-24 0 6 88 c23 314 178 560 379 602
54 11 151 3 197 -16z"/>
<path d="M4988 6411 c-159 -274 -288 -503 -288 -510 0 -11 553 -977 569 -994
4 -4 138 217 296 493 l289 500 1547 2 1546 3 -291 503 -290 502 -1545 0 -1546
0 -287 -499z"/>
<path d="M27860 6354 c-160 -26 -287 -123 -341 -264 -33 -84 -37 -199 -9 -279
63 -189 226 -300 421 -289 241 14 422 242 381 479 -26 154 -133 282 -277 332
-45 16 -137 27 -175 21z m171 -59 c153 -53 260 -222 246 -387 -12 -136 -93
-255 -215 -315 -51 -25 -68 -28 -157 -28 -88 0 -107 3 -157 27 -74 34 -146
107 -184 183 -26 54 -29 70 -29 160 0 87 3 107 27 157 85 182 282 267 469 203z"/>
<path d="M27762 5934 l3 -229 43 -3 42 -3 0 85 0 86 33 0 c31 0 35 -4 75 -85
l42 -85 45 0 c29 0 45 4 45 13 0 6 -20 47 -45 91 -25 43 -45 80 -45 81 0 2 15
18 33 37 45 44 54 94 28 152 -28 65 -62 79 -194 84 l-107 4 2 -228z m200 139
c25 -23 25 -94 -2 -118 -10 -9 -40 -20 -65 -22 l-45 -6 0 82 0 81 47 0 c29 0
53 -6 65 -17z"/>
<path d="M5757 5062 c-158 -275 -287 -502 -287 -507 0 -4 129 -232 288 -506
224 -389 289 -496 298 -485 5 8 136 233 290 500 l279 485 1548 1 c1011 0 1548
3 1545 10 -1 5 -131 232 -288 505 l-285 495 -1550 0 -1550 0 -288 -498z"/>
<path d="M13955 4600 c-279 -60 -460 -286 -494 -613 -24 -237 37 -467 160
-601 108 -119 246 -178 414 -179 182 -1 314 51 431 168 127 127 194 309 194
530 0 344 -136 580 -388 673 -74 27 -242 39 -317 22z m231 -209 c89 -41 159
-147 189 -287 8 -38 15 -123 15 -191 0 -255 -60 -406 -191 -478 -48 -26 -63
-30 -139 -29 -68 0 -93 4 -127 22 -89 46 -158 148 -190 279 -23 95 -23 315 0
403 37 141 119 251 209 283 62 22 183 21 234 -2z"/>
<path d="M15100 4214 c-36 -8 -93 -24 -128 -35 l-62 -21 6 -96 c4 -54 8 -98 9
-100 2 -2 25 8 52 21 76 39 160 60 244 60 131 1 179 -46 187 -183 l4 -77 -68
-7 c-180 -19 -319 -70 -396 -147 -98 -98 -103 -262 -11 -350 47 -46 64 -54
135 -68 103 -22 244 18 321 92 l38 35 10 -26 c23 -64 33 -88 40 -97 5 -7 40
-8 106 -2 54 5 99 11 101 12 2 2 -4 38 -14 81 -13 63 -17 140 -18 389 l-1 310
-28 57 c-59 121 -160 169 -351 167 -61 -1 -140 -7 -176 -15z m308 -661 l-3
-138 -54 -27 c-122 -62 -231 -15 -231 99 0 57 37 111 97 145 41 23 135 52 186
57 4 1 6 -61 5 -136z"/>
<path d="M16010 4219 c-41 -5 -78 -10 -82 -11 -3 -2 58 -112 137 -246 l143
-243 -145 -235 c-120 -194 -143 -237 -133 -249 16 -19 194 -22 207 -3 4 7 49
89 99 183 50 93 94 170 98 170 3 0 52 -81 109 -180 l103 -180 133 -3 c105 -2
132 0 128 10 -2 7 -68 120 -145 250 l-140 237 144 233 c80 128 143 240 142
248 -3 16 -64 28 -158 29 l-55 1 -100 -200 -100 -201 -107 198 -107 198 -48 1
c-26 1 -82 -2 -123 -7z"/>
<path d="M17250 4214 c-36 -8 -93 -24 -128 -35 l-63 -21 7 -96 c4 -54 8 -98 9
-100 2 -2 25 8 52 21 76 39 160 60 244 60 131 1 179 -46 187 -183 l4 -77 -93
-11 c-123 -15 -200 -35 -276 -73 -253 -123 -221 -455 48 -493 96 -14 241 35
311 105 31 30 30 30 48 -26 25 -82 25 -82 139 -71 55 5 101 12 101 17 0 4 -8
38 -17 76 -14 56 -17 123 -17 383 -1 298 -2 317 -22 361 -32 68 -77 113 -146
145 -58 26 -73 29 -193 31 -85 1 -152 -3 -195 -13z m310 -659 l0 -134 -46 -27
c-91 -53 -194 -41 -230 28 -21 41 -14 115 14 155 34 48 155 102 255 112 4 1 7
-60 7 -134z"/>
<path d="M18398 4207 c-199 -69 -306 -222 -324 -462 -15 -203 85 -408 236
-485 119 -61 288 -71 425 -26 118 39 117 38 109 135 -6 70 -9 81 -23 75 -173
-74 -292 -73 -381 4 -84 71 -124 214 -102 357 14 91 38 140 90 187 75 68 190
71 317 9 39 -20 62 -26 66 -19 13 20 52 178 46 184 -3 3 -36 17 -74 32 -56 21
-90 26 -193 29 -111 3 -132 1 -192 -20z"/>
<path d="M19301 4215 c-35 -8 -93 -24 -129 -36 l-64 -21 7 -97 c4 -53 8 -97
10 -99 2 -2 14 3 27 12 12 8 59 27 103 42 109 36 224 39 278 5 50 -31 65 -64
73 -158 l7 -80 -103 -12 c-166 -20 -276 -60 -351 -128 -57 -52 -81 -105 -87
-188 -3 -63 -1 -76 25 -125 81 -154 335 -170 487 -30 l44 41 16 -49 c30 -89
29 -89 145 -78 56 5 101 12 101 17 0 4 -8 34 -17 66 -14 49 -17 109 -18 378
-1 274 -3 326 -18 363 -27 71 -72 118 -145 154 -64 32 -72 33 -197 35 -84 2
-153 -3 -194 -12z m309 -660 l0 -134 -47 -28 c-34 -20 -65 -28 -110 -31 -61
-4 -64 -3 -98 31 -31 31 -35 41 -35 86 0 62 18 101 62 135 49 36 140 68 216
75 9 1 12 -32 12 -134z"/>
</g>
</svg>
