<?xml version="1.0" encoding="UTF-8"?>
<svg xmlns="http://www.w3.org/2000/svg" xmlns:xlink="http://www.w3.org/1999/xlink" width="200px" height="82px" viewBox="0 0 201 82" version="1.1">
<g id="surface1">
<path style=" stroke:none;fill-rule:nonzero;fill:rgb(0%,0%,0%);fill-opacity:1;" d="M 39.214844 15.4375 C 39.214844 15.46875 40 16.851562 40.957031 18.515625 L 42.699219 21.539062 L 38.003906 29.671875 C 35.421875 34.144531 33.308594 37.824219 33.308594 37.835938 C 33.308594 37.855469 34.90625 37.863281 36.847656 37.855469 L 40.386719 37.835938 L 45.050781 29.761719 C 47.605469 25.320312 49.71875 21.640625 49.734375 21.585938 C 49.757812 21.496094 46.722656 16.125 46.328125 15.546875 L 46.210938 15.382812 L 42.710938 15.382812 C 40.683594 15.382812 39.214844 15.40625 39.214844 15.4375 Z M 39.214844 15.4375 "/>
<path style=" stroke:none;fill-rule:nonzero;fill:rgb(0%,0%,0%);fill-opacity:1;" d="M 48.65625 15.480469 C 48.65625 15.5 49.433594 16.871094 50.390625 18.519531 L 52.125 21.53125 L 47.460938 29.617188 C 44.898438 34.058594 42.785156 37.738281 42.765625 37.78125 C 42.742188 37.855469 43.289062 37.867188 46.253906 37.867188 L 49.78125 37.867188 L 59.203125 21.539062 L 58.703125 20.664062 C 58.429688 20.191406 57.636719 18.820312 56.949219 17.621094 L 55.6875 15.445312 L 52.175781 15.445312 C 50.238281 15.445312 48.65625 15.460938 48.65625 15.480469 Z M 48.65625 15.480469 "/>
<path style=" stroke:none;fill-rule:nonzero;fill:rgb(0%,0%,0%);fill-opacity:1;" d="M 145.316406 15.515625 L 144.824219 15.578125 L 144.855469 16.871094 L 144.886719 18.167969 L 144.558594 18.125 C 143.710938 18.015625 142.75 18.34375 142.230469 18.917969 C 141.6875 19.519531 141.488281 20.171875 141.53125 21.234375 C 141.554688 21.757812 141.597656 22.019531 141.695312 22.285156 C 142.011719 23.101562 142.6875 23.609375 143.46875 23.617188 C 144.101562 23.621094 144.390625 23.519531 144.800781 23.144531 L 145.03125 22.9375 L 145.152344 23.261719 L 145.28125 23.578125 L 145.84375 23.566406 C 146.152344 23.554688 146.421875 23.535156 146.4375 23.523438 C 146.449219 23.503906 146.421875 23.304688 146.367188 23.066406 C 146.28125 22.699219 146.269531 22.128906 146.269531 19.160156 C 146.269531 16.875 146.242188 15.640625 146.207031 15.558594 C 146.132812 15.433594 146.085938 15.433594 145.316406 15.515625 Z M 144.792969 18.90625 C 144.847656 18.949219 144.867188 19.355469 144.855469 20.746094 L 144.835938 22.53125 L 144.679688 22.652344 C 144.277344 22.949219 143.550781 22.796875 143.261719 22.347656 C 143 21.9375 142.902344 21.480469 142.929688 20.722656 C 142.949219 20.191406 142.984375 19.976562 143.09375 19.734375 C 143.261719 19.355469 143.550781 19.058594 143.871094 18.949219 C 144.128906 18.851562 144.671875 18.832031 144.792969 18.90625 Z M 144.792969 18.90625 "/>
<path style=" stroke:none;fill-rule:nonzero;fill:rgb(0%,0%,0%);fill-opacity:1;" d="M 161.558594 15.523438 L 161.054688 15.585938 L 161.089844 15.804688 C 161.113281 15.925781 161.144531 16.515625 161.167969 17.113281 C 161.199219 17.941406 161.1875 18.191406 161.132812 18.160156 C 161.097656 18.136719 160.820312 18.117188 160.53125 18.117188 C 158.921875 18.117188 157.917969 19.101562 157.796875 20.78125 C 157.722656 21.761719 158.015625 22.640625 158.570312 23.140625 C 158.976562 23.503906 159.347656 23.628906 159.957031 23.597656 C 160.488281 23.574219 160.765625 23.457031 161.089844 23.144531 C 161.328125 22.914062 161.339844 22.921875 161.492188 23.390625 L 161.566406 23.628906 L 162.148438 23.585938 C 162.472656 23.558594 162.738281 23.535156 162.746094 23.53125 C 162.753906 23.523438 162.714844 23.367188 162.660156 23.183594 C 162.574219 22.890625 162.558594 22.359375 162.539062 19.222656 C 162.527344 16.753906 162.503906 15.578125 162.453125 15.523438 C 162.382812 15.4375 162.296875 15.4375 161.558594 15.523438 Z M 161.089844 18.894531 C 161.175781 18.921875 161.1875 19.144531 161.1875 20.722656 L 161.1875 22.511719 L 160.992188 22.632812 C 160.351562 23.023438 159.652344 22.742188 159.347656 21.976562 C 159.238281 21.683594 159.214844 21.507812 159.214844 20.867188 C 159.207031 20.136719 159.214844 20.085938 159.398438 19.703125 C 159.589844 19.289062 159.835938 19.050781 160.183594 18.929688 C 160.382812 18.855469 160.945312 18.835938 161.089844 18.894531 Z M 161.089844 18.894531 "/>
<path style=" stroke:none;fill-rule:nonzero;fill:rgb(0%,0%,0%);fill-opacity:1;" d="M 100.761719 15.652344 C 100.445312 15.765625 100.316406 15.894531 100.195312 16.21875 C 99.988281 16.753906 100.335938 17.273438 100.894531 17.273438 C 101.589844 17.273438 102.039062 16.523438 101.695312 15.949219 C 101.5 15.625 101.144531 15.515625 100.761719 15.652344 Z M 100.761719 15.652344 "/>
<path style=" stroke:none;fill-rule:nonzero;fill:rgb(0%,0%,0%);fill-opacity:1;" d="M 136.824219 15.640625 C 136.476562 15.730469 136.207031 16.046875 136.171875 16.40625 C 136.117188 16.972656 136.457031 17.316406 137.023438 17.261719 C 137.5 17.210938 137.804688 16.84375 137.804688 16.332031 C 137.804688 15.9375 137.578125 15.6875 137.132812 15.597656 C 137.085938 15.589844 136.945312 15.609375 136.824219 15.640625 Z M 136.824219 15.640625 "/>
<path style=" stroke:none;fill-rule:nonzero;fill:rgb(0%,0%,0%);fill-opacity:1;" d="M 82.96875 16.097656 C 82.835938 16.101562 82.5625 16.125 82.359375 16.144531 L 81.988281 16.179688 L 82.035156 16.621094 C 82.0625 16.863281 82.078125 18.007812 82.078125 19.167969 C 82.085938 20.332031 82.117188 21.421875 82.148438 21.597656 C 82.390625 22.878906 83.371094 23.617188 84.824219 23.617188 C 86.097656 23.617188 86.988281 23.117188 87.433594 22.160156 L 87.597656 21.8125 L 87.613281 18.960938 L 87.632812 16.113281 L 87.214844 16.113281 C 86.980469 16.113281 86.671875 16.132812 86.523438 16.152344 L 86.257812 16.1875 L 86.273438 18.8125 C 86.292969 21.121094 86.28125 21.46875 86.195312 21.695312 C 85.96875 22.285156 85.585938 22.535156 84.917969 22.535156 C 84.191406 22.535156 83.699219 22.152344 83.554688 21.46875 C 83.511719 21.28125 83.488281 20.222656 83.488281 18.6875 C 83.488281 16.1875 83.472656 16.027344 83.277344 16.066406 C 83.242188 16.070312 83.101562 16.082031 82.96875 16.097656 Z M 82.96875 16.097656 "/>
<path style=" stroke:none;fill-rule:nonzero;fill:rgb(0%,0%,0%);fill-opacity:1;" d="M 94.53125 18.136719 C 94.128906 18.199219 93.753906 18.355469 93.40625 18.628906 L 93.125 18.84375 L 93.015625 18.484375 C 92.941406 18.253906 92.871094 18.125 92.816406 18.125 C 92.570312 18.125 91.644531 18.339844 91.644531 18.394531 C 91.644531 18.429688 91.6875 18.679688 91.738281 18.949219 C 91.804688 19.308594 91.824219 19.972656 91.828125 21.488281 L 91.828125 23.546875 L 93.167969 23.546875 L 93.167969 19.421875 L 93.460938 19.265625 C 93.832031 19.0625 94.183594 19.003906 94.472656 19.101562 C 94.898438 19.238281 94.898438 19.253906 94.933594 21.507812 L 94.964844 23.519531 L 95.652344 23.535156 L 96.339844 23.554688 L 96.324219 21.402344 C 96.304688 19.527344 96.285156 19.214844 96.195312 18.976562 C 95.9375 18.328125 95.332031 18.015625 94.53125 18.136719 Z M 94.53125 18.136719 "/>
<path style=" stroke:none;fill-rule:nonzero;fill:rgb(0%,0%,0%);fill-opacity:1;" d="M 115.492188 18.136719 C 114.511719 18.265625 113.75 18.988281 113.476562 20.054688 C 113.429688 20.246094 113.386719 20.660156 113.386719 20.964844 C 113.386719 22.324219 114.019531 23.226562 115.207031 23.546875 C 115.828125 23.710938 116.953125 23.597656 117.53125 23.296875 L 117.777344 23.175781 L 117.738281 22.769531 C 117.714844 22.542969 117.683594 22.355469 117.679688 22.339844 C 117.667969 22.328125 117.464844 22.390625 117.222656 22.476562 C 116.679688 22.671875 116.039062 22.6875 115.664062 22.519531 C 115.339844 22.371094 115.011719 21.976562 114.890625 21.59375 C 114.695312 21.007812 114.585938 21.050781 116.246094 21.050781 C 117.628906 21.050781 117.714844 21.042969 117.832031 20.929688 C 117.921875 20.835938 117.953125 20.726562 117.953125 20.484375 C 117.953125 18.851562 116.996094 17.9375 115.492188 18.136719 Z M 116.316406 19.148438 C 116.484375 19.34375 116.613281 19.789062 116.613281 20.195312 L 116.613281 20.441406 L 116.257812 20.441406 C 116.058594 20.441406 115.652344 20.457031 115.347656 20.476562 L 114.785156 20.519531 L 114.785156 20.304688 C 114.785156 20.015625 114.945312 19.515625 115.101562 19.3125 C 115.449219 18.867188 115.996094 18.796875 116.316406 19.148438 Z M 116.316406 19.148438 "/>
<path style=" stroke:none;fill-rule:nonzero;fill:rgb(0%,0%,0%);fill-opacity:1;" d="M 124.429688 18.125 C 124.132812 18.191406 123.8125 18.417969 123.554688 18.746094 C 123.421875 18.910156 123.296875 19.050781 123.273438 19.058594 C 123.257812 19.0625 123.183594 18.867188 123.121094 18.617188 C 123.0625 18.367188 122.996094 18.148438 122.976562 18.136719 C 122.957031 18.117188 122.664062 18.15625 122.332031 18.214844 L 121.714844 18.332031 L 121.753906 18.574219 C 121.769531 18.714844 121.8125 19.003906 121.851562 19.222656 C 121.878906 19.441406 121.910156 20.5 121.910156 21.582031 L 121.910156 23.546875 L 123.25 23.546875 L 123.25 19.824219 L 123.652344 19.636719 C 124.015625 19.464844 124.089844 19.453125 124.554688 19.476562 L 125.058594 19.503906 L 125.121094 18.894531 C 125.15625 18.550781 125.164062 18.253906 125.136719 18.222656 C 125.058594 18.144531 124.636719 18.082031 124.429688 18.125 Z M 124.429688 18.125 "/>
<path style=" stroke:none;fill-rule:nonzero;fill:rgb(0%,0%,0%);fill-opacity:1;" d="M 130.046875 18.136719 C 129.339844 18.222656 128.761719 18.5625 128.511719 19.050781 C 128.457031 19.15625 128.402344 19.378906 128.382812 19.5625 C 128.308594 20.28125 128.6875 20.746094 129.789062 21.261719 C 130.644531 21.664062 130.863281 21.84375 130.863281 22.117188 C 130.863281 22.402344 130.8125 22.507812 130.613281 22.605469 C 130.234375 22.804688 129.070312 22.628906 128.566406 22.292969 C 128.4375 22.214844 128.425781 22.21875 128.394531 22.339844 C 128.382812 22.421875 128.359375 22.660156 128.351562 22.878906 L 128.335938 23.269531 L 128.730469 23.414062 C 128.945312 23.488281 129.339844 23.574219 129.601562 23.601562 C 131.25 23.761719 132.316406 23.054688 132.183594 21.882812 C 132.109375 21.300781 131.691406 20.890625 130.679688 20.441406 C 129.800781 20.050781 129.546875 19.78125 129.699219 19.417969 C 129.867188 19.007812 130.546875 18.917969 131.320312 19.199219 C 131.554688 19.277344 131.789062 19.363281 131.84375 19.378906 C 131.925781 19.410156 131.953125 19.335938 131.988281 18.917969 C 132.042969 18.332031 132.054688 18.351562 131.441406 18.222656 C 130.855469 18.101562 130.539062 18.082031 130.046875 18.136719 Z M 130.046875 18.136719 "/>
<path style=" stroke:none;fill-rule:nonzero;fill:rgb(0%,0%,0%);fill-opacity:1;" d="M 151.863281 18.132812 C 151.425781 18.179688 150.839844 18.3125 150.523438 18.441406 L 150.328125 18.527344 L 150.34375 18.949219 C 150.359375 19.59375 150.359375 19.59375 150.703125 19.429688 C 151.109375 19.226562 151.828125 19.074219 152.152344 19.125 C 152.765625 19.203125 152.964844 19.453125 152.964844 20.125 L 152.964844 20.542969 L 152.550781 20.582031 C 151.003906 20.707031 150.097656 21.378906 150.105469 22.398438 C 150.109375 23.128906 150.648438 23.609375 151.460938 23.617188 C 152.070312 23.621094 152.515625 23.464844 152.886719 23.101562 C 152.996094 23 153.09375 22.925781 153.105469 22.945312 C 153.117188 22.957031 153.171875 23.101562 153.234375 23.261719 C 153.296875 23.425781 153.386719 23.574219 153.429688 23.589844 C 153.476562 23.609375 153.746094 23.601562 154.027344 23.578125 L 154.539062 23.535156 L 154.441406 23.226562 C 154.359375 22.96875 154.34375 22.566406 154.335938 21.234375 C 154.332031 20.3125 154.304688 19.460938 154.28125 19.34375 C 154.082031 18.441406 153.167969 17.984375 151.863281 18.132812 Z M 152.964844 21.78125 L 152.964844 22.519531 L 152.648438 22.664062 C 152.179688 22.882812 151.90625 22.867188 151.652344 22.609375 C 151.480469 22.4375 151.445312 22.355469 151.445312 22.148438 C 151.445312 21.671875 151.730469 21.367188 152.359375 21.164062 C 152.992188 20.964844 152.964844 20.941406 152.964844 21.78125 Z M 152.964844 21.78125 "/>
<path style=" stroke:none;fill-rule:nonzero;fill:rgb(0%,0%,0%);fill-opacity:1;" d="M 100.632812 18.191406 C 100.402344 18.222656 100.203125 18.257812 100.191406 18.265625 C 100.183594 18.277344 100.195312 18.492188 100.230469 18.742188 C 100.261719 18.988281 100.292969 20.171875 100.292969 21.367188 L 100.292969 23.546875 L 101.632812 23.546875 L 101.621094 20.847656 L 101.601562 18.15625 L 101.328125 18.148438 C 101.175781 18.144531 100.867188 18.160156 100.632812 18.191406 Z M 100.632812 18.191406 "/>
<path style=" stroke:none;fill-rule:nonzero;fill:rgb(0%,0%,0%);fill-opacity:1;" d="M 105.652344 18.179688 C 105.46875 18.199219 105.324219 18.242188 105.324219 18.277344 C 105.328125 18.308594 105.6875 19.445312 106.125 20.804688 C 106.558594 22.164062 106.9375 23.335938 106.960938 23.414062 C 106.996094 23.546875 107.015625 23.554688 107.734375 23.535156 L 108.472656 23.519531 L 109.316406 20.988281 C 109.78125 19.597656 110.152344 18.40625 110.144531 18.339844 C 110.121094 18.199219 109.785156 18.113281 109.339844 18.136719 L 109.042969 18.15625 L 108.691406 19.464844 C 108.5 20.183594 108.246094 21.109375 108.125 21.523438 C 108.003906 21.9375 107.90625 22.335938 107.90625 22.410156 C 107.898438 22.480469 107.808594 22.203125 107.699219 21.78125 C 107.585938 21.359375 107.328125 20.367188 107.105469 19.574219 L 106.71875 18.125 L 106.351562 18.136719 C 106.152344 18.144531 105.835938 18.160156 105.652344 18.179688 Z M 105.652344 18.179688 "/>
<path style=" stroke:none;fill-rule:nonzero;fill:rgb(0%,0%,0%);fill-opacity:1;" d="M 136.675781 18.191406 C 136.207031 18.257812 136.140625 18.289062 136.203125 18.378906 C 136.226562 18.421875 136.261719 19.597656 136.28125 20.988281 L 136.3125 23.519531 L 137.652344 23.519531 L 137.671875 20.902344 C 137.675781 19.027344 137.664062 18.265625 137.613281 18.210938 C 137.535156 18.113281 137.242188 18.113281 136.675781 18.191406 Z M 136.675781 18.191406 "/>
<path style=" stroke:none;fill-rule:nonzero;fill:rgb(0%,0%,0%);fill-opacity:1;" d="M 60.265625 23.738281 C 60.21875 23.816406 59.457031 25.132812 58.582031 26.65625 C 57.703125 28.179688 56.949219 29.488281 56.90625 29.554688 C 56.828125 29.679688 57.171875 30.300781 61.527344 37.84375 L 66.234375 46.003906 L 73.347656 46.027344 L 75.082031 43.011719 C 76.039062 41.355469 76.824219 39.96875 76.835938 39.941406 C 76.847656 39.902344 75.515625 39.871094 73.316406 39.867188 L 69.777344 39.847656 L 65.121094 31.773438 C 62.558594 27.332031 60.4375 23.675781 60.40625 23.644531 C 60.382812 23.621094 60.316406 23.65625 60.265625 23.738281 Z M 60.265625 23.738281 "/>
<path style=" stroke:none;fill-rule:nonzero;fill:rgb(0%,0%,0%);fill-opacity:1;" d="M 142.046875 26.808594 C 141.183594 26.917969 140.464844 27.019531 140.445312 27.035156 C 140.417969 27.0625 140.550781 28.277344 140.640625 28.820312 C 140.660156 28.953125 140.695312 33.339844 140.71875 38.570312 L 140.757812 48.074219 L 144.289062 48.074219 L 144.308594 37.539062 L 144.320312 26.996094 L 144.125 26.796875 C 143.996094 26.660156 143.875 26.59375 143.777344 26.601562 C 143.6875 26.605469 142.914062 26.699219 142.046875 26.808594 Z M 142.046875 26.808594 "/>
<path style=" stroke:none;fill-rule:nonzero;fill:rgb(0%,0%,0%);fill-opacity:1;" d="M 148.960938 26.808594 C 148.078125 26.917969 147.347656 27.019531 147.332031 27.035156 C 147.328125 27.039062 147.339844 27.230469 147.371094 27.449219 C 147.625 29.277344 147.625 29.300781 147.652344 38.886719 L 147.675781 48.105469 L 151.199219 48.105469 L 151.199219 26.984375 L 151 26.789062 C 150.890625 26.679688 150.742188 26.59375 150.683594 26.601562 C 150.617188 26.605469 149.84375 26.699219 148.960938 26.808594 Z M 148.960938 26.808594 "/>
<path style=" stroke:none;fill-rule:nonzero;fill:rgb(0%,0%,0%);fill-opacity:1;" d="M 83.488281 28.449219 C 82.066406 28.570312 81.996094 28.582031 82.007812 28.695312 C 82.226562 30.738281 82.269531 32.714844 82.269531 40.75 L 82.269531 48.105469 L 87.980469 48.09375 L 93.6875 48.074219 L 93.703125 46.65625 L 93.714844 45.242188 L 93.066406 45.242188 C 92.382812 45.242188 88.710938 45.332031 86.945312 45.394531 L 85.921875 45.429688 L 85.921875 28.734375 L 85.734375 28.515625 C 85.507812 28.257812 85.605469 28.257812 83.488281 28.449219 Z M 83.488281 28.449219 "/>
<path style=" stroke:none;fill-rule:nonzero;fill:rgb(0%,0%,0%);fill-opacity:1;" d="M 118.207031 28.375 C 117.527344 28.460938 116.460938 28.746094 115.84375 29.015625 C 114.238281 29.707031 113.222656 30.84375 112.757812 32.433594 C 112.582031 33.058594 112.570312 34.515625 112.738281 35.121094 C 113.085938 36.386719 113.855469 37.363281 115.210938 38.265625 C 115.527344 38.476562 116.460938 38.996094 117.269531 39.414062 C 119.546875 40.589844 120.265625 41.128906 120.699219 42 C 120.882812 42.363281 120.90625 42.472656 120.925781 43.015625 C 120.941406 43.527344 120.925781 43.679688 120.8125 43.972656 C 120.546875 44.6875 119.875 45.199219 118.957031 45.394531 C 117.519531 45.699219 114.871094 45.253906 113.25 44.441406 L 112.78125 44.207031 L 112.753906 44.40625 C 112.710938 44.667969 112.53125 46.863281 112.53125 47.117188 C 112.53125 47.308594 112.558594 47.332031 112.917969 47.496094 C 114.148438 48.054688 116.320312 48.398438 118.21875 48.332031 C 121.585938 48.21875 123.835938 46.8125 124.527344 44.382812 C 124.71875 43.730469 124.761719 42.511719 124.625 41.828125 C 124.394531 40.707031 123.957031 39.921875 123.097656 39.097656 C 122.410156 38.429688 121.644531 37.941406 119.894531 37.039062 C 119.089844 36.632812 118.214844 36.144531 117.933594 35.960938 C 117.304688 35.539062 116.777344 34.992188 116.5625 34.535156 C 116.417969 34.21875 116.398438 34.109375 116.398438 33.542969 C 116.398438 32.96875 116.417969 32.863281 116.570312 32.558594 C 116.886719 31.914062 117.574219 31.445312 118.507812 31.25 C 118.851562 31.175781 119.175781 31.160156 119.902344 31.183594 C 121.191406 31.230469 122.042969 31.433594 123.207031 31.96875 C 123.5 32.109375 123.75 32.207031 123.761719 32.195312 C 123.78125 32.164062 124.183594 29.367188 124.1875 29.183594 C 124.195312 29.085938 124.097656 29.03125 123.683594 28.898438 C 123.066406 28.691406 121.917969 28.453125 121.105469 28.367188 C 120.40625 28.289062 118.839844 28.292969 118.207031 28.375 Z M 118.207031 28.375 "/>
<path style=" stroke:none;fill-rule:nonzero;fill:rgb(0%,0%,0%);fill-opacity:1;" d="M 53.867188 34.804688 C 52.90625 36.472656 52.113281 37.855469 52.105469 37.878906 C 52.101562 37.898438 54.207031 41.578125 56.785156 46.058594 L 61.472656 54.191406 L 68.597656 54.191406 L 70.34375 51.164062 L 72.085938 48.136719 L 68.5625 48.105469 L 65.027344 48.074219 L 60.492188 40.214844 C 57.996094 35.886719 55.875 32.21875 55.785156 32.0625 L 55.613281 31.769531 Z M 53.867188 34.804688 "/>
<path style=" stroke:none;fill-rule:nonzero;fill:rgb(0%,0%,0%);fill-opacity:1;" d="M 100.535156 33.699219 C 99.847656 33.785156 98.964844 33.9375 98.421875 34.058594 C 97.800781 34.207031 96.371094 34.65625 96.226562 34.75 C 96.164062 34.789062 96.164062 35.050781 96.25 36.167969 C 96.304688 36.917969 96.351562 37.539062 96.359375 37.542969 C 96.359375 37.542969 96.640625 37.417969 96.972656 37.253906 C 98.269531 36.613281 99.5625 36.3125 100.804688 36.355469 C 101.695312 36.394531 102.089844 36.519531 102.539062 36.929688 C 103.089844 37.421875 103.277344 38.074219 103.277344 39.476562 L 103.277344 40.164062 L 102.6875 40.207031 C 99.472656 40.4375 97.210938 41.355469 96.226562 42.835938 C 95.8125 43.449219 95.660156 43.941406 95.621094 44.785156 C 95.566406 45.910156 95.855469 46.703125 96.554688 47.375 C 97.285156 48.074219 98.269531 48.390625 99.554688 48.332031 C 100.398438 48.292969 101.042969 48.136719 101.742188 47.800781 C 102.394531 47.488281 102.734375 47.25 103.199219 46.777344 C 103.433594 46.539062 103.59375 46.421875 103.605469 46.472656 C 103.625 46.515625 103.691406 46.738281 103.769531 46.976562 C 103.84375 47.210938 104 47.617188 104.117188 47.878906 L 104.332031 48.359375 L 104.824219 48.316406 C 106.699219 48.152344 107.328125 48.066406 107.300781 47.984375 C 107.289062 47.933594 107.203125 47.582031 107.105469 47.195312 C 106.753906 45.8125 106.730469 45.410156 106.777344 41.433594 C 106.820312 37.574219 106.816406 37.394531 106.523438 36.507812 C 106.054688 35.09375 104.878906 34.152344 103.15625 33.816406 C 102.65625 33.71875 100.992188 33.644531 100.535156 33.699219 Z M 103.277344 43.347656 L 103.277344 45.234375 L 103.050781 45.425781 C 102.453125 45.917969 101.363281 46.269531 100.675781 46.191406 C 100.230469 46.136719 99.988281 46.027344 99.664062 45.734375 C 98.820312 44.953125 98.933594 43.480469 99.902344 42.628906 C 100.554688 42.054688 102.070312 41.503906 103.082031 41.46875 L 103.277344 41.460938 Z M 103.277344 43.347656 "/>
<path style=" stroke:none;fill-rule:nonzero;fill:rgb(0%,0%,0%);fill-opacity:1;" d="M 131.5 33.699219 C 130.878906 33.765625 129.9375 33.933594 129.261719 34.097656 C 128.480469 34.285156 127.28125 34.675781 127.183594 34.765625 C 127.128906 34.816406 127.226562 36.785156 127.304688 37.332031 L 127.335938 37.550781 L 128.078125 37.199219 C 129.253906 36.632812 130.417969 36.34375 131.539062 36.34375 C 132.273438 36.34375 132.675781 36.425781 133.132812 36.667969 C 133.566406 36.894531 133.859375 37.226562 134.039062 37.679688 C 134.15625 37.972656 134.175781 38.171875 134.199219 39.09375 L 134.222656 40.164062 L 133.621094 40.207031 C 130.332031 40.445312 128.085938 41.394531 127.085938 42.960938 C 126.636719 43.675781 126.449219 44.789062 126.625 45.675781 C 126.878906 46.929688 127.597656 47.746094 128.808594 48.148438 C 129.265625 48.292969 129.394531 48.3125 130.253906 48.3125 C 131.277344 48.316406 131.648438 48.25 132.464844 47.917969 C 133.109375 47.652344 133.523438 47.386719 134.050781 46.875 C 134.320312 46.617188 134.546875 46.410156 134.550781 46.417969 C 134.558594 46.421875 134.636719 46.660156 134.730469 46.949219 C 134.820312 47.234375 134.992188 47.667969 135.101562 47.917969 L 135.308594 48.367188 L 135.660156 48.332031 C 135.847656 48.3125 136.523438 48.246094 137.152344 48.191406 C 138.253906 48.085938 138.296875 48.074219 138.273438 47.960938 C 138.253906 47.886719 138.175781 47.570312 138.085938 47.25 C 137.738281 45.976562 137.71875 45.648438 137.742188 42.621094 C 137.792969 38.015625 137.785156 37.617188 137.628906 36.984375 C 137.207031 35.253906 136.066406 34.230469 134.113281 33.816406 C 133.644531 33.710938 132.035156 33.644531 131.5 33.699219 Z M 134.210938 43.382812 L 134.210938 45.300781 L 133.765625 45.59375 C 132.683594 46.300781 131.472656 46.398438 130.734375 45.832031 C 129.953125 45.234375 129.839844 43.914062 130.492188 43.046875 C 131.042969 42.308594 132.023438 41.808594 133.394531 41.5625 C 133.65625 41.511719 133.949219 41.46875 134.046875 41.46875 L 134.210938 41.460938 Z M 134.210938 43.382812 "/>
<path style=" stroke:none;fill-rule:nonzero;fill:rgb(0%,0%,0%);fill-opacity:1;" d="M 159.511719 33.722656 C 158.605469 33.863281 157.527344 34.285156 156.816406 34.773438 C 156.167969 35.210938 155.367188 36.089844 154.902344 36.863281 C 153.507812 39.183594 153.476562 43.054688 154.835938 45.320312 C 155.183594 45.898438 155.945312 46.726562 156.472656 47.105469 C 156.992188 47.476562 157.878906 47.886719 158.554688 48.066406 C 160.152344 48.496094 162.253906 48.421875 163.890625 47.886719 C 164.433594 47.710938 165.347656 47.289062 165.445312 47.167969 C 165.503906 47.101562 165.402344 45.617188 165.296875 44.960938 L 165.265625 44.773438 L 164.871094 44.980469 C 164.378906 45.242188 163.617188 45.519531 163.050781 45.648438 C 162.429688 45.789062 161.042969 45.789062 160.515625 45.644531 C 159.257812 45.300781 158.320312 44.382812 157.867188 43.046875 C 157.742188 42.664062 157.535156 41.707031 157.535156 41.476562 C 157.535156 41.421875 158.367188 41.402344 161.515625 41.402344 L 165.5 41.402344 L 165.71875 41.160156 L 165.9375 40.914062 L 165.9375 39.890625 C 165.9375 38.488281 165.808594 37.710938 165.445312 36.8125 C 165.167969 36.132812 164.902344 35.734375 164.324219 35.15625 C 163.878906 34.707031 163.671875 34.546875 163.210938 34.308594 C 162.410156 33.902344 161.667969 33.71875 160.667969 33.695312 C 160.238281 33.683594 159.714844 33.695312 159.511719 33.722656 Z M 161.058594 35.953125 C 161.429688 36.113281 161.765625 36.441406 161.992188 36.875 C 162.300781 37.464844 162.40625 38 162.40625 39.019531 L 162.40625 39.878906 L 162.117188 39.878906 C 161.953125 39.878906 160.925781 39.921875 159.816406 39.96875 C 158.714844 40.019531 157.742188 40.0625 157.660156 40.0625 L 157.515625 40.0625 L 157.550781 39.527344 C 157.691406 37.613281 158.636719 36.113281 159.859375 35.855469 C 160.1875 35.789062 160.78125 35.839844 161.058594 35.953125 Z M 161.058594 35.953125 "/>
<path style=" stroke:none;fill-rule:nonzero;fill:rgb(0%,0%,0%);fill-opacity:1;" d="M 30.375 42.917969 C 29.40625 44.589844 28.621094 45.984375 28.621094 46.027344 C 28.621094 46.09375 31.988281 51.980469 32.085938 52.085938 C 32.109375 52.109375 32.925781 50.761719 33.886719 49.078125 L 35.648438 46.03125 L 45.066406 46.019531 L 54.480469 46.003906 L 52.710938 42.9375 L 50.945312 39.878906 L 32.121094 39.878906 Z M 30.375 42.917969 "/>
<path style=" stroke:none;fill-rule:nonzero;fill:rgb(0%,0%,0%);fill-opacity:1;" d="M 169.652344 43.265625 C 168.675781 43.425781 167.902344 44.015625 167.574219 44.875 C 167.375 45.386719 167.351562 46.089844 167.519531 46.574219 C 167.902344 47.726562 168.894531 48.402344 170.085938 48.335938 C 171.550781 48.25 172.652344 46.863281 172.402344 45.417969 C 172.246094 44.480469 171.59375 43.699219 170.71875 43.394531 C 170.441406 43.296875 169.882812 43.230469 169.652344 43.265625 Z M 170.691406 43.625 C 171.625 43.949219 172.277344 44.980469 172.191406 45.984375 C 172.117188 46.8125 171.625 47.539062 170.882812 47.902344 C 170.570312 48.054688 170.46875 48.074219 169.925781 48.074219 C 169.390625 48.074219 169.273438 48.054688 168.96875 47.910156 C 168.519531 47.703125 168.082031 47.257812 167.847656 46.792969 C 167.691406 46.464844 167.671875 46.367188 167.671875 45.820312 C 167.671875 45.289062 167.691406 45.167969 167.835938 44.863281 C 168.355469 43.753906 169.554688 43.238281 170.691406 43.625 Z M 170.691406 43.625 "/>
<path style=" stroke:none;fill-rule:nonzero;fill:rgb(0%,0%,0%);fill-opacity:1;" d="M 169.054688 45.824219 L 169.074219 47.222656 L 169.335938 47.238281 L 169.589844 47.257812 L 169.589844 46.214844 L 169.792969 46.214844 C 169.980469 46.214844 170.003906 46.242188 170.25 46.734375 L 170.503906 47.25 L 170.777344 47.25 C 170.953125 47.25 171.050781 47.226562 171.050781 47.171875 C 171.050781 47.136719 170.929688 46.886719 170.777344 46.617188 C 170.625 46.355469 170.503906 46.128906 170.503906 46.125 C 170.503906 46.113281 170.59375 46.015625 170.707031 45.898438 C 170.980469 45.632812 171.035156 45.328125 170.875 44.972656 C 170.707031 44.578125 170.5 44.492188 169.695312 44.460938 L 169.042969 44.4375 Z M 170.273438 44.980469 C 170.425781 45.121094 170.425781 45.550781 170.261719 45.699219 C 170.199219 45.753906 170.015625 45.820312 169.863281 45.832031 L 169.589844 45.867188 L 169.589844 44.875 L 169.878906 44.875 C 170.054688 44.875 170.199219 44.910156 170.273438 44.980469 Z M 170.273438 44.980469 "/>
<path style=" stroke:none;fill-rule:nonzero;fill:rgb(0%,0%,0%);fill-opacity:1;" d="M 35.058594 51.140625 C 34.09375 52.816406 33.308594 54.199219 33.308594 54.230469 C 33.308594 54.253906 34.09375 55.640625 35.0625 57.3125 C 36.425781 59.683594 36.824219 60.335938 36.878906 60.269531 C 36.90625 60.21875 37.707031 58.847656 38.644531 57.222656 L 40.34375 54.265625 L 49.769531 54.257812 C 55.925781 54.257812 59.195312 54.242188 59.175781 54.199219 C 59.171875 54.167969 58.378906 52.785156 57.421875 51.121094 L 55.6875 48.105469 L 36.8125 48.105469 Z M 35.058594 51.140625 "/>
<path style=" stroke:none;fill-rule:nonzero;fill:rgb(0%,0%,0%);fill-opacity:1;" d="M 84.976562 53.953125 C 83.277344 54.320312 82.175781 55.699219 81.96875 57.691406 C 81.824219 59.132812 82.195312 60.535156 82.945312 61.351562 C 83.601562 62.078125 84.441406 62.4375 85.464844 62.441406 C 86.574219 62.449219 87.378906 62.132812 88.089844 61.417969 C 88.863281 60.644531 89.269531 59.535156 89.269531 58.191406 C 89.269531 56.09375 88.441406 54.65625 86.910156 54.089844 C 86.457031 53.925781 85.433594 53.851562 84.976562 53.953125 Z M 86.382812 55.226562 C 86.925781 55.476562 87.351562 56.125 87.535156 56.976562 C 87.585938 57.207031 87.628906 57.726562 87.628906 58.140625 C 87.628906 59.695312 87.261719 60.613281 86.464844 61.054688 C 86.171875 61.210938 86.082031 61.238281 85.617188 61.230469 C 85.203125 61.230469 85.050781 61.207031 84.84375 61.097656 C 84.300781 60.816406 83.882812 60.195312 83.6875 59.394531 C 83.546875 58.816406 83.546875 57.476562 83.6875 56.941406 C 83.914062 56.082031 84.410156 55.410156 84.960938 55.214844 C 85.335938 55.082031 86.074219 55.089844 86.382812 55.226562 Z M 86.382812 55.226562 "/>
<path style=" stroke:none;fill-rule:nonzero;fill:rgb(0%,0%,0%);fill-opacity:1;" d="M 91.949219 56.308594 C 91.730469 56.355469 91.382812 56.453125 91.171875 56.519531 L 90.792969 56.648438 L 90.828125 57.234375 C 90.855469 57.5625 90.878906 57.832031 90.882812 57.84375 C 90.898438 57.855469 91.035156 57.792969 91.203125 57.714844 C 91.664062 57.476562 92.175781 57.347656 92.6875 57.347656 C 93.484375 57.34375 93.777344 57.628906 93.824219 58.464844 L 93.851562 58.933594 L 93.4375 58.976562 C 92.339844 59.089844 91.492188 59.402344 91.023438 59.871094 C 90.429688 60.46875 90.398438 61.46875 90.957031 62.003906 C 91.242188 62.285156 91.347656 62.332031 91.78125 62.417969 C 92.40625 62.554688 93.265625 62.308594 93.734375 61.859375 L 93.964844 61.644531 L 94.027344 61.804688 C 94.167969 62.191406 94.226562 62.339844 94.269531 62.394531 C 94.300781 62.4375 94.515625 62.441406 94.917969 62.40625 C 95.246094 62.375 95.519531 62.339844 95.53125 62.332031 C 95.542969 62.320312 95.507812 62.101562 95.445312 61.839844 C 95.367188 61.457031 95.34375 60.988281 95.335938 59.46875 L 95.332031 57.582031 L 95.160156 57.234375 C 94.800781 56.496094 94.183594 56.203125 93.023438 56.214844 C 92.652344 56.222656 92.167969 56.257812 91.949219 56.308594 Z M 93.824219 60.335938 L 93.808594 61.175781 L 93.480469 61.339844 C 92.734375 61.71875 92.074219 61.429688 92.074219 60.738281 C 92.074219 60.390625 92.296875 60.0625 92.664062 59.851562 C 92.914062 59.714844 93.484375 59.535156 93.796875 59.507812 C 93.820312 59.5 93.832031 59.878906 93.824219 60.335938 Z M 93.824219 60.335938 "/>
<path style=" stroke:none;fill-rule:nonzero;fill:rgb(0%,0%,0%);fill-opacity:1;" d="M 97.492188 56.277344 C 97.242188 56.308594 97.015625 56.335938 96.992188 56.34375 C 96.972656 56.355469 97.347656 57.027344 97.828125 57.84375 L 98.699219 59.324219 L 97.816406 60.753906 C 97.082031 61.9375 96.945312 62.199219 97.003906 62.273438 C 97.101562 62.386719 98.1875 62.40625 98.265625 62.289062 C 98.289062 62.246094 98.5625 61.75 98.867188 61.175781 C 99.171875 60.609375 99.441406 60.140625 99.464844 60.140625 C 99.484375 60.140625 99.78125 60.632812 100.128906 61.238281 L 100.753906 62.332031 L 101.566406 62.351562 C 102.207031 62.363281 102.371094 62.351562 102.34375 62.289062 C 102.332031 62.246094 101.929688 61.558594 101.460938 60.765625 L 100.609375 59.324219 L 101.488281 57.902344 C 101.972656 57.125 102.355469 56.441406 102.351562 56.390625 C 102.332031 56.292969 101.960938 56.222656 101.390625 56.214844 L 101.054688 56.210938 L 100.445312 57.429688 L 99.835938 58.652344 L 98.53125 56.238281 L 98.242188 56.234375 C 98.082031 56.226562 97.742188 56.246094 97.492188 56.277344 Z M 97.492188 56.277344 "/>
<path style=" stroke:none;fill-rule:nonzero;fill:rgb(0%,0%,0%);fill-opacity:1;" d="M 105.042969 56.308594 C 104.824219 56.355469 104.476562 56.453125 104.261719 56.519531 L 103.878906 56.648438 L 103.921875 57.234375 C 103.945312 57.5625 103.972656 57.832031 103.976562 57.84375 C 103.988281 57.855469 104.128906 57.792969 104.292969 57.714844 C 104.757812 57.476562 105.269531 57.347656 105.78125 57.347656 C 106.578125 57.34375 106.871094 57.628906 106.917969 58.464844 L 106.941406 58.933594 L 106.375 59 C 105.628906 59.089844 105.160156 59.214844 104.695312 59.445312 C 103.15625 60.195312 103.351562 62.21875 104.988281 62.449219 C 105.574219 62.535156 106.457031 62.234375 106.882812 61.808594 C 107.070312 61.625 107.066406 61.625 107.175781 61.96875 C 107.328125 62.46875 107.328125 62.46875 108.019531 62.402344 C 108.355469 62.371094 108.636719 62.328125 108.636719 62.296875 C 108.636719 62.273438 108.585938 62.066406 108.53125 61.832031 C 108.445312 61.492188 108.429688 61.085938 108.429688 59.5 C 108.421875 57.683594 108.417969 57.566406 108.292969 57.300781 C 108.097656 56.886719 107.824219 56.613281 107.40625 56.417969 C 107.050781 56.257812 106.960938 56.238281 106.230469 56.226562 C 105.710938 56.222656 105.304688 56.246094 105.042969 56.308594 Z M 106.929688 60.324219 L 106.929688 61.140625 L 106.652344 61.304688 C 106.097656 61.625 105.46875 61.554688 105.25 61.132812 C 105.121094 60.882812 105.164062 60.433594 105.335938 60.1875 C 105.542969 59.894531 106.277344 59.566406 106.886719 59.507812 C 106.910156 59.5 106.929688 59.871094 106.929688 60.324219 Z M 106.929688 60.324219 "/>
<path style=" stroke:none;fill-rule:nonzero;fill:rgb(0%,0%,0%);fill-opacity:1;" d="M 112.035156 56.347656 C 110.820312 56.769531 110.171875 57.703125 110.058594 59.164062 C 109.96875 60.402344 110.578125 61.652344 111.496094 62.121094 C 112.222656 62.492188 113.25 62.554688 114.085938 62.277344 C 114.804688 62.039062 114.796875 62.046875 114.75 61.457031 C 114.710938 61.027344 114.695312 60.960938 114.609375 61 C 113.554688 61.449219 112.832031 61.445312 112.289062 60.972656 C 111.777344 60.542969 111.535156 59.671875 111.667969 58.800781 C 111.753906 58.246094 111.898438 57.945312 112.214844 57.660156 C 112.671875 57.246094 113.371094 57.226562 114.148438 57.605469 C 114.382812 57.726562 114.523438 57.761719 114.546875 57.71875 C 114.628906 57.597656 114.863281 56.636719 114.828125 56.597656 C 114.808594 56.582031 114.609375 56.496094 114.378906 56.40625 C 114.035156 56.277344 113.828125 56.246094 113.203125 56.226562 C 112.527344 56.210938 112.398438 56.222656 112.035156 56.347656 Z M 112.035156 56.347656 "/>
<path style=" stroke:none;fill-rule:nonzero;fill:rgb(0%,0%,0%);fill-opacity:1;" d="M 117.53125 56.300781 C 117.320312 56.347656 116.964844 56.445312 116.746094 56.519531 L 116.355469 56.648438 L 116.398438 57.238281 C 116.421875 57.5625 116.449219 57.832031 116.460938 57.84375 C 116.472656 57.855469 116.546875 57.824219 116.625 57.769531 C 116.699219 57.71875 116.984375 57.605469 117.253906 57.511719 C 117.914062 57.292969 118.617188 57.277344 118.945312 57.484375 C 119.25 57.671875 119.339844 57.871094 119.390625 58.445312 L 119.433594 58.933594 L 118.804688 59.007812 C 117.792969 59.128906 117.125 59.371094 116.667969 59.785156 C 116.320312 60.101562 116.175781 60.425781 116.136719 60.933594 C 116.121094 61.316406 116.132812 61.394531 116.289062 61.695312 C 116.785156 62.632812 118.328125 62.730469 119.253906 61.875 L 119.523438 61.625 L 119.621094 61.925781 C 119.804688 62.46875 119.796875 62.46875 120.503906 62.402344 C 120.84375 62.371094 121.117188 62.328125 121.117188 62.296875 C 121.117188 62.273438 121.070312 62.089844 121.015625 61.894531 C 120.929688 61.597656 120.910156 61.230469 120.90625 59.589844 C 120.898438 57.921875 120.886719 57.605469 120.796875 57.378906 C 120.632812 56.945312 120.359375 56.660156 119.914062 56.441406 C 119.523438 56.246094 119.472656 56.238281 118.714844 56.226562 C 118.203125 56.214844 117.78125 56.246094 117.53125 56.300781 Z M 119.414062 60.324219 L 119.414062 61.140625 L 119.128906 61.308594 C 118.921875 61.429688 118.730469 61.480469 118.457031 61.5 C 118.085938 61.523438 118.066406 61.515625 117.859375 61.308594 C 117.671875 61.121094 117.648438 61.058594 117.648438 60.785156 C 117.648438 60.40625 117.757812 60.171875 118.027344 59.960938 C 118.324219 59.742188 118.878906 59.546875 119.339844 59.507812 C 119.394531 59.5 119.414062 59.699219 119.414062 60.324219 Z M 119.414062 60.324219 "/>
</g>
</svg>
